<svg xmlns="http://www.w3.org/2000/svg" viewBox="0 0 24 24" width="24" height="24">
  <rect width="24" height="24" fill="white"/>
  <path d="M12 2C8 2 4 3.5 4 6v12c0 2.5 4 4 8 4s8-1.5 8-4V6c0-2.5-4-4-8-4zm0 2c3.5 0 6 1.3 6 2s-2.5 2-6 2-6-1.3-6-2 2.5-2 6-2zM4 8c0-.1 0-.2.1-.3 0 0 .1 0 .1-.1.2-.3.6-.5 1-.7C6.6 6.3 9.1 6 12 6s5.4.3 6.8.9c.4.2.8.4 1 .7 0 0 .1 0 .1.1.1.1.1.2.1.3v4c0 .7-2.5 2-6 2s-6-1.3-6-2V8zm0 6c1.4.8 3.9 1.3 6 1.3s4.6-.5 6-1.3v4c0 .7-2.5 2-6 2s-6-1.3-6-2v-4z" fill="#3B82F6"/>
</svg> 